<?xml version="1.0" encoding="UTF-8"?>
<svg width="152mm" height="174mm" version="1.1" viewBox="0 0 152 174" xmlns="http://www.w3.org/2000/svg">
 <defs>
  <marker id="Arrow1Mstart" overflow="visible" orient="auto">
   <path transform="matrix(.4 0 0 .4 4 0)" d="m0 0 5-5-18 5 18 5z" fill="#fff" fill-rule="evenodd" stroke="#000" stroke-width="1pt"/>
  </marker>
  <marker id="marker5080" overflow="visible" orient="auto">
   <path transform="scale(-.6)" d="m8.7 4-11-4 11-4c-1.7 2.4-1.7 5.6 0 8z" fill-rule="evenodd" stroke="#000" stroke-linejoin="round" stroke-width=".62"/>
  </marker>
  <marker id="Arrow2Mend" overflow="visible" orient="auto">
   <path transform="scale(-.6)" d="m8.7 4-11-4 11-4c-1.7 2.4-1.7 5.6 0 8z" fill-rule="evenodd" stroke="#000" stroke-linejoin="round" stroke-width=".62"/>
  </marker>
  <marker id="marker5080-0" overflow="visible" orient="auto">
   <path transform="scale(-.6)" d="m8.7 4-11-4 11-4c-1.7 2.4-1.7 5.6 0 8z" fill-rule="evenodd" stroke="#025" stroke-linejoin="round" stroke-width=".62"/>
  </marker>
 </defs>
 <rect x=".52" y="39" width="29" height="67" fill="#f2f2f2" stroke="#000" stroke-dasharray="0.190274, 0.0475684" stroke-width=".048"/>
 <rect id="group_a" x="2" y="46" width="26" height="52" fill="none" stroke="#000" stroke-width=".48"/>
 <rect x="29" y=".59" width="95" height="20" fill="#f2f2f2" stroke="#000" stroke-width=".18"/>
 <g transform="translate(-9)" font-family="sans-serif" letter-spacing="0px" word-spacing="0px">
  <g font-size="3.4px" stroke-width=".21">
   <text x="39.105087" y="10.666119" style="line-height:1.25" xml:space="preserve"><tspan x="39.105087" y="10.666119">Group A</tspan></text>
   <text x="39.190643" y="17.248617" style="line-height:1.25" xml:space="preserve"><tspan x="39.190643" y="17.248617">Group B</tspan></text>
   <text x="57.035088" y="4.8146954" style="line-height:1.25" xml:space="preserve"><tspan x="57.035088" y="4.8146954">Suitable</tspan></text>
  </g>
  <text x="99.62748" y="25.442522" font-size="4.6px" stroke-width=".26" style="line-height:1.25" xml:space="preserve"><tspan x="99.62748" y="25.442522">[Training Data]</tspan></text>
  <text x="104.92269" y="4.9735165" font-size="3.4px" stroke-width=".21" style="line-height:1.25" xml:space="preserve"><tspan x="104.92269" y="4.9735165">Not Suitable</tspan></text>
 </g>
 <rect x="48" y="7.1" width="70" height="3.4" fill="#ffd5d5" stroke="#000" stroke-width=".21"/>
 <rect id="bar_suita" x="48" y="7.1" width="48" height="3.5" fill="#008000" stroke="#000" stroke-width=".21"/>
 <rect x="48" y="15" width="70" height="3.4" fill="#ffd5d5" stroke="#000" stroke-width=".21"/>
 <rect x="48" y="15" width="48" height="3.5" fill="#008000" stroke="#000" stroke-width=".21"/>
 <path d="m76 21 0.19 10" fill="none" marker-end="url(#marker5080)" stroke="#000" stroke-width="1.1"/>
 <g id="train" transform="translate(-1.1)">
  <rect x="64" y="32" width="26" height="18" fill="#d5e5ff" stroke="#000" stroke-width=".26"/>
  <g transform="translate(-19 -18)" stroke="#000" stroke-width=".64">
   <path transform="scale(.26)" d="m352 197-1.7 0.55-0.42 3.5 0.23 0.92 0.99 1.9-2.8 2-1.5-1.5-0.8-0.5-3.5-0.68-1.1 1.4 1.7 3.1 0.72 0.61 1.9 0.94-1.1 3.3-2.1-0.36-0.94 0.066-3.2 1.5v1.8l3.2 1.5 0.94 0.066 2.1-0.36 1.1 3.3-1.9 0.94-0.72 0.61-1.7 3.1 1.1 1.4 3.5-0.68 0.8-0.5 1.5-1.5 2.8 2-0.99 1.9-0.23 0.92 0.42 3.5 1.7 0.55 2.4-2.6 0.36-0.87 0.3-2.1h3.4l0.3 2.1 0.36 0.87 2.4 2.6 1.7-0.55 0.42-3.5-0.23-0.92-0.99-1.9 2.8-2 1.5 1.5 0.8 0.5 3.5 0.68 1.1-1.4-1.7-3.1-0.72-0.61-1.9-0.94 1.1-3.3 2.1 0.36 0.94-0.066 3.2-1.5v-1.8l-3.2-1.5-0.94-0.066-2.1 0.36-1.1-3.3 1.9-0.94 0.72-0.61 1.7-3.1-1.1-1.4-3.5 0.68-0.8 0.5-1.5 1.5-2.8-2 0.99-1.9 0.23-0.92-0.42-3.5-1.7-0.55-2.4 2.6-0.36 0.88-0.3 2.1h-3.4l-0.3-2.1-0.36-0.88zm4.8 11a6.4 6.4 0 0 1 0.033 0 6.4 6.4 0 0 1 6.4 6.4 6.4 6.4 0 0 1-6.4 6.4 6.4 6.4 0 0 1-6.4-6.4 6.4 6.4 0 0 1 6.3-6.4z"/>
   <path transform="scale(.26)" d="m382 211-1.5 0.34-0.82 3.6 0.14 0.64 1.1 2.1-2.5 2-1.9-1.5-0.6-0.29-3.7 0.01-0.67 1.4 2.3 2.9 0.59 0.29 2.3 0.5v3.2l-2.3 0.5-0.59 0.29-2.3 2.9 0.67 1.4 3.7 0.01 0.6-0.29 1.9-1.5 2.5 2-1.1 2.1-0.14 0.64 0.82 3.6 1.5 0.35 2.3-2.9 0.15-0.64-0.035-2.4 3.1-0.71 1 2.2 0.41 0.52 3.3 1.6 1.2-0.97-0.8-3.6-0.41-0.52-1.9-1.5 1.4-2.9 2.3 0.57 0.66-4e-3 3.3-1.6v-1.6l-3.3-1.6-0.66-2e-3 -2.3 0.57-1.4-2.9 1.9-1.5 0.41-0.52 0.8-3.6-1.2-0.97-3.3 1.6-0.41 0.52-1 2.2-3.1-0.7 0.035-2.4-0.15-0.64zm2.3 8.7a4.8 4.8 0 0 1 4.8 4.8 4.8 4.8 0 0 1-4.8 4.8 4.8 4.8 0 0 1-4.8-4.8 4.8 4.8 0 0 1 4.8-4.8z"/>
  </g>
  <text x="70.28318" y="48.102207" font-family="sans-serif" font-size="4.2px" letter-spacing="0px" stroke-width=".26" word-spacing="0px" style="line-height:1.25" xml:space="preserve"><tspan x="70.28318" y="48.102207">[Train]</tspan></text>
 </g>
 <text x="9.623333" y="35.797234" font-family="sans-serif" font-size="4.2px" letter-spacing="0px" stroke-width=".26" word-spacing="0px" style="line-height:1.25" xml:space="preserve"><tspan x="9.623333" y="35.797234">Deployment Cohort</tspan></text>
 <text x="6.6833639" y="44.42358" font-family="sans-serif" font-size="4.2px" letter-spacing="0px" stroke-width=".26" word-spacing="0px" style="line-height:1.25" xml:space="preserve"><tspan x="6.6833639" y="44.42358">Group A</tspan></text>
 <text x="1.1309593" y="103.54102" font-family="sans-serif" font-size="4.2px" letter-spacing="0px" stroke-width=".26" word-spacing="0px" style="line-height:1.25" xml:space="preserve"><tspan x="1.1309593" y="103.54102">70% Suitable</tspan></text>
 <rect x="31" y="39" width="29" height="67" fill="#f2f2f2" stroke="#000" stroke-dasharray="0.190274, 0.0475684" stroke-width=".048"/>
 <rect id="group_b" x="33" y="46" width="26" height="52" fill="none" stroke="#000" stroke-width=".48"/>
 <text x="37.411819" y="44.410526" fill="#000000" font-family="sans-serif" font-size="4.2px" letter-spacing="0px" stroke-width=".26" word-spacing="0px" style="line-height:1.25" xml:space="preserve"><tspan x="37.411819" y="44.410526">Group B</tspan></text>
 <text x="31.859409" y="103.52797" fill="#000000" font-family="sans-serif" font-size="4.2px" letter-spacing="0px" stroke-width=".26" word-spacing="0px" style="line-height:1.25" xml:space="preserve"><tspan x="31.859409" y="103.52797">60% Suitable</tspan></text>
 <rect x="93" y="38" width="29" height="62" fill="#f2f2f2" stroke="#000" stroke-dasharray="0.18364, 0.04591" stroke-width=".046"/>
 <rect id="select_a" x="94" y="45" width="26" height="52" fill="none" stroke="#000" stroke-width=".48"/>
 <text x="103.28955" y="35.907227" fill="#000000" font-family="sans-serif" font-size="4.2px" letter-spacing="0px" stroke-width=".26" word-spacing="0px" style="line-height:1.25" xml:space="preserve"><tspan x="103.28955" y="35.907227">Selection Priority</tspan></text>
 <text x="98.245331" y="43.184322" fill="#000000" font-family="sans-serif" font-size="4.2px" letter-spacing="0px" stroke-width=".26" word-spacing="0px" style="line-height:1.25" xml:space="preserve"><tspan x="98.245331" y="43.184322">Group A</tspan></text>
 <rect x="123" y="38" width="29" height="62" fill="#f2f2f2" stroke="#000" stroke-dasharray="0.182458, 0.0456145" stroke-width=".046"/>
 <rect id="select_b" x="125" y="45" width="26" height="52" fill="none" stroke="#000" stroke-width=".48"/>
 <text x="128.97388" y="43.171268" fill="#000000" font-family="sans-serif" font-size="4.2px" letter-spacing="0px" stroke-width=".26" word-spacing="0px" style="line-height:1.25" xml:space="preserve"><tspan x="128.97388" y="43.171268">Group B</tspan></text>
 <g id="model">
  <g transform="matrix(1.9 0 0 1.9 -91 -71)" stroke="#000">
   <g transform="translate(-41,-27)" fill="none" stroke-width=".26px">
    <path d="m121 96 7.1 6.4-7.2-3.3"/>
    <path d="m121 102 7.1 0.16-7 2.9"/>
    <path d="m128 102-7 6.1"/>
   </g>
   <path d="m89 75h6.7" fill="none" marker-end="url(#Arrow2Mend)" stroke-width=".26"/>
   <g transform="translate(-41,-27)" stroke-width=".48">
    <circle cx="121" cy="96" r=".93" fill="#f4d7d7"/>
    <circle cx="121" cy="99" r=".93" fill="#ff0"/>
    <circle cx="121" cy="102" r=".93" fill="#d7d7f4"/>
    <circle cx="121" cy="105" r=".93" fill="#ff0"/>
    <circle cx="121" cy="108" r=".93" fill="#d7d7f4"/>
    <rect x="126" y="100" width="4.6" height="4.6" fill="#999"/>
   </g>
  </g>
  <text x="67.859055" y="82.313248" font-family="sans-serif" font-size="4.2px" letter-spacing="0px" stroke-width=".26" word-spacing="0px" style="line-height:1.25" xml:space="preserve"><tspan x="67.859055" y="82.313248">[Predict]</tspan></text>
 </g>
 <text x="8.8368607" y="116.22929" font-family="sans-serif" font-size="3.5px" letter-spacing="0px" stroke-width=".26" word-spacing="0px" style="line-height:1.25" xml:space="preserve"><tspan x="8.8368607" y="116.22929">Accuracy</tspan></text>
 <text transform="translate(-42 -6.9)" x="39.649437" y="137.79497" font-family="sans-serif" font-size="3.5px" letter-spacing="0px" stroke-width=".26" word-spacing="0px" style="inline-size:27.5122;line-height:1.25;white-space:pre" xml:space="preserve"><tspan x="39.649437" y="137.79497"><tspan text-anchor="end">Demographic </tspan></tspan><tspan x="39.649437" y="142.16997"><tspan text-anchor="end">Parity</tspan></tspan></text>
 <text transform="translate(-12 -6.9)" x="37.154324" y="156.0771" font-family="sans-serif" font-size="3.5px" letter-spacing="0px" stroke-width=".26" text-anchor="end" word-spacing="0px" style="inline-size:26.9907;line-height:1.25;white-space:pre" xml:space="preserve"><tspan x="37.154324" y="156.0771"><tspan>Equal</tspan><tspan y="156.0771"> </tspan></tspan><tspan x="37.154324" y="160.4521"><tspan>Opportunity</tspan></tspan></text>
 <path d="m76 50 0.059 15" marker-end="url(#marker5080-0)" stroke="#025" stroke-width="1.1"/>
 <circle cx="32" cy="115" r="4.2" fill="none" stroke="#000080" stroke-width=".79"/>
 <circle cx="32" cy="115" r="2.3" fill="none" stroke="#000080" stroke-width=".79"/>
 <circle cx="32" cy="115" r=".81" fill="#000080" stroke="#000080" stroke-width=".79"/>
 <path d="m32 115 1.7-1.3" fill="#fff" marker-end="url(#Arrow1Mstart)" stroke="#000" stroke-width=".79"/>
 <g transform="translate(21 .84)" stroke="#afafe9" stroke-width=".79">
  <circle cx="10" cy="131" r="4.2" fill="none"/>
  <circle cx="10" cy="131" r="2.3" fill="none"/>
  <circle cx="10" cy="131" r=".81" fill="#afafe9"/>
 </g>
 <g transform="translate(21 6.2)" stroke="#afafe9" stroke-width=".79">
  <circle cx="10" cy="144" r="4.2" fill="none"/>
  <circle cx="10" cy="144" r="2.3" fill="none"/>
  <circle cx="10" cy="144" r=".81" fill="#afafe9"/>
 </g>
 <text transform="translate(-31 -6.3)" x="31.72488" y="173.83009" fill="#000000" font-family="sans-serif" font-size="3.5px" letter-spacing="0px" stroke-width=".26" word-spacing="0px" style="inline-size:24.0402;line-height:1.25;white-space:pre" xml:space="preserve"><tspan x="31.72488" y="173.83009"><tspan text-anchor="end">Precision </tspan></tspan><tspan x="31.72488" y="178.20509"><tspan text-anchor="end">Parity</tspan></tspan></text>
 <g transform="translate(21 9.2)" stroke="#afafe9" stroke-width=".79">
  <circle cx="10" cy="159" r="4.2" fill="none"/>
  <circle cx="10" cy="159" r="2.3" fill="none"/>
  <circle cx="10" cy="159" r=".81" fill="#afafe9"/>
 </g>
 <rect id="base_bar" x="45" y="112" width="95" height="3.4" fill="#fff" stroke="#000" stroke-width=".25"/>
 <rect id="bar_correct" x="45" y="112" width="66" height="3.5" fill="#00f" stroke="#000" stroke-width=".25"/>
 <text x="45.210011" y="111.2628" fill="#000000" font-family="sans-serif" font-size="3.5px" letter-spacing="0px" stroke-width=".26" word-spacing="0px" style="line-height:1.25" xml:space="preserve"><tspan x="45.210011" y="111.2628">Correct</tspan></text>
 <text x="124.59798" y="111.49044" fill="#000000" font-family="sans-serif" font-size="3.5px" letter-spacing="0px" stroke-width=".26" word-spacing="0px" style="line-height:1.25" xml:space="preserve"><tspan x="124.59798" y="111.49044">Incorrect</tspan></text>
 <rect x="45" y="125" width="95" height="3.4" fill="#e6e6e6" stroke="#000" stroke-width=".25"/>
 <rect id="bar_dpa" x="45" y="125" width="66" height="3.5" fill="#4d4d4d" stroke="#000" stroke-width=".25"/>
 <text x="44.766251" y="143.89175" font-family="sans-serif" font-size="3.5px" letter-spacing="0px" stroke-width=".26" word-spacing="0px" style="line-height:1.25" xml:space="preserve"><tspan x="44.766251" y="143.89175">Selected &amp; Suitable</tspan></text>
 <text x="98.632561" y="143.89175" font-family="sans-serif" font-size="3.5px" letter-spacing="0px" stroke-width=".26" word-spacing="0px" style="line-height:1.25" xml:space="preserve"><tspan x="98.632561" y="143.89175">Not Selected &amp; Suitable</tspan></text>
 <text x="45.0947" y="124.3884" font-family="sans-serif" font-size="3.5px" letter-spacing="0px" stroke-width=".26" word-spacing="0px" style="line-height:1.25" xml:space="preserve"><tspan x="45.0947" y="124.3884">Selected</tspan></text>
 <text x="118.03844" y="124.25191" font-family="sans-serif" font-size="3.5px" letter-spacing="0px" stroke-width=".26" word-spacing="0px" style="line-height:1.25" xml:space="preserve"><tspan x="118.03844" y="124.25191">Not Selected</tspan></text>
 <rect x="45" y="131" width="95" height="3.4" fill="#e6e6e6" stroke="#000" stroke-width=".25"/>
 <rect id="bar_dpb" x="45" y="131" width="51" height="3.5" fill="#4d4d4d" stroke="#000" stroke-width=".22"/>
 <rect x="45" y="145" width="95" height="3.4" fill="#c6e9af" stroke="#000" stroke-width=".25"/>
 <rect id="bar_eoa" x="45" y="145" width="66" height="3.5" fill="#338000" stroke="#000" stroke-width=".25"/>
 <rect x="45" y="151" width="95" height="3.4" fill="#c6e9af" stroke="#000" stroke-width=".25"/>
 <rect id="bar_eob" x="45" y="151" width="51" height="3.5" fill="#338000" stroke="#000" stroke-width=".22"/>
 <text x="44.49662" y="162.85513" fill="#000000" font-family="sans-serif" font-size="3.5px" letter-spacing="0px" stroke-width=".26" word-spacing="0px" style="line-height:1.25" xml:space="preserve"><tspan x="44.49662" y="162.85513">Selected &amp; Suitable</tspan></text>
 <text x="97.83374" y="162.85513" fill="#000000" font-family="sans-serif" font-size="3.5px" letter-spacing="0px" stroke-width=".26" word-spacing="0px" style="line-height:1.25" xml:space="preserve"><tspan x="97.83374" y="162.85513">Selected &amp; Not Suitable</tspan></text>
 <rect x="45" y="164" width="95" height="3.4" fill="#ffd5d5" stroke="#000" stroke-width=".25"/>
 <rect id="bar_ppa" x="45" y="164" width="53" height="3.5" fill="#338000" stroke="#000" stroke-width=".22"/>
 <rect x="45" y="170" width="95" height="3.4" fill="#ffd5d5" stroke="#000" stroke-width=".25"/>
 <rect id="bar_ppb" x="45" y="170" width="35" height="3.6" fill="#338000" stroke="#000" stroke-width=".18"/>
 <text x="40.714119" y="128.20694" font-family="sans-serif" font-size="3.5px" letter-spacing="0px" stroke-width=".26" word-spacing="0px" style="line-height:1.25" xml:space="preserve"><tspan x="40.714119" y="128.20694">A</tspan></text>
 <text x="40.846447" y="134.34901" font-family="sans-serif" font-size="3.5px" letter-spacing="0px" stroke-width=".26" word-spacing="0px" style="line-height:1.25" xml:space="preserve"><tspan x="40.846447" y="134.34901">B</tspan></text>
 <text x="40.926689" y="148.17957" font-family="sans-serif" font-size="3.5px" letter-spacing="0px" stroke-width=".26" word-spacing="0px" style="line-height:1.25" xml:space="preserve"><tspan x="40.926689" y="148.17957">A</tspan></text>
 <text x="41.059017" y="154.32164" font-family="sans-serif" font-size="3.5px" letter-spacing="0px" stroke-width=".26" word-spacing="0px" style="line-height:1.25" xml:space="preserve"><tspan x="41.059017" y="154.32164">B</tspan></text>
 <text x="41.252518" y="167.31512" font-family="sans-serif" font-size="3.5px" letter-spacing="0px" stroke-width=".26" word-spacing="0px" style="line-height:1.25" xml:space="preserve"><tspan x="41.252518" y="167.31512">A</tspan></text>
 <text x="41.384846" y="173.4572" font-family="sans-serif" font-size="3.5px" letter-spacing="0px" stroke-width=".26" word-spacing="0px" style="line-height:1.25" xml:space="preserve"><tspan x="41.384846" y="173.4572">B</tspan></text>
</svg>
